<?xml version="1.0" encoding="UTF-8"?>
<svg width="48" height="48" viewBox="0 0 48 48" fill="none" xmlns="http://www.w3.org/2000/svg">
  <path d="M24 4C20 4 16 8 16 12C16 16 20 20 24 20C28 20 32 16 32 12C32 8 28 4 24 4Z" fill="#FFB6C1"/>
  <path d="M24 28C20 28 16 32 16 36C16 40 20 44 24 44C28 44 32 40 32 36C32 32 28 28 24 28Z" fill="#FFB6C1"/>
  <path d="M4 24C4 20 8 16 12 16C16 16 20 20 20 24C20 28 16 32 12 32C8 32 4 28 4 24Z" fill="#FFB6C1"/>
  <path d="M28 24C28 20 32 16 36 16C40 16 44 20 44 24C44 28 40 32 36 32C32 32 28 28 28 24Z" fill="#FFB6C1"/>
  <circle cx="24" cy="24" r="6" fill="#FFD700"/>
</svg> 